<svg width="55" height="71" viewBox="0 0 55 71" fill="none" xmlns="http://www.w3.org/2000/svg">
<g id="Spine">
<path id="Vector" d="M54.6928 34.9702C54.6273 34.8185 54.5521 34.6721 54.4681 34.5313C54.3839 34.3896 54.2914 34.2538 54.1898 34.1248C54.0956 34.0058 53.9975 33.8905 53.8901 33.7836C53.719 33.6128 53.5308 33.4582 53.3293 33.3226C52.8491 32.9994 52.2893 32.7864 51.6868 32.711C51.5308 32.6915 51.3728 32.6782 51.2112 32.6782C50.2539 32.6782 49.3861 33.0388 48.7197 33.623C48.675 33.6617 48.6289 33.6987 48.5862 33.7396H43.4631H43.4599V28.9353C43.4599 27.4014 42.2116 26.1579 40.6722 26.1579H27.5001H14.3274C12.7878 26.1579 11.5397 27.4014 11.5397 28.9353V33.7396H11.5365H6.41336C6.33356 33.6627 6.24957 33.59 6.16298 33.5202C6.00058 33.389 5.82721 33.271 5.64466 33.1674C5.4284 33.045 5.19757 32.9458 4.95756 32.8671C4.58927 32.7466 4.19743 32.6782 3.78824 32.6782C1.69601 32.6782 0 34.3681 0 36.4524C0 36.8434 0.059652 37.2202 0.170379 37.5746C0.230231 37.7664 0.305246 37.9517 0.393827 38.1294C1.0137 39.3725 2.30092 40.2266 3.78824 40.2266C4.80952 40.2266 5.73225 39.8197 6.41336 39.1652H11.5365V39.1648H11.5397V44.4003C11.5397 45.9342 12.7878 47.1776 14.3274 47.1776H27.5001H40.6726C42.212 47.1776 43.4603 45.9342 43.4603 44.4003V39.1648H43.4635V39.1652H48.5866C49.2682 39.8197 50.1907 40.2266 51.2116 40.2266C53.3038 40.2266 55 38.5367 55 36.4524C55 36.0573 54.9378 35.677 54.8238 35.3196C54.7857 35.2006 54.742 35.0839 54.6928 34.9702Z" fill="#270F3A"/>
<path id="Vector_2" d="M53.6214 57.6656C53.376 57.4677 53.1041 57.3 52.8124 57.1675C52.326 56.9459 51.7837 56.8229 51.2116 56.8229C51.0839 56.8229 50.958 56.8289 50.8335 56.8412C50.709 56.8534 50.5869 56.8711 50.4664 56.895C50.2256 56.942 49.9932 57.012 49.7717 57.1016C49.328 57.2812 48.9274 57.5408 48.5866 57.8607H43.4635H43.4603V53.163C43.4603 51.6632 42.212 50.4474 40.6726 50.4474H27.5001H14.3274C12.7878 50.4474 11.5397 51.6632 11.5397 53.163V57.8607H11.5365H6.41336C6.22702 57.6858 6.02273 57.5288 5.80327 57.3931C5.58381 57.2576 5.34919 57.1434 5.1024 57.0534C4.80633 56.9455 4.49251 56.873 4.16631 56.8412C4.04202 56.8289 3.91593 56.8229 3.78824 56.8229C2.97066 56.8229 2.21553 57.0777 1.59666 57.5066C1.47536 57.5909 1.36044 57.6819 1.25051 57.7791C1.04642 57.959 0.862071 58.159 0.701867 58.3781C0.656379 58.4402 0.613883 58.5044 0.572386 58.5693C0.211876 59.1339 0 59.7985 0 60.5127C0 60.8474 0.0456866 61.1714 0.131275 61.4794C0.188334 61.6848 0.263149 61.8827 0.353925 62.0726C0.490189 62.3567 0.662364 62.621 0.865263 62.8606C0.942473 62.9518 1.02407 63.039 1.10966 63.1226C1.25929 63.2688 1.42368 63.3999 1.59686 63.5197C1.91687 63.7418 2.27498 63.9124 2.65863 64.0279C2.78652 64.0662 2.9172 64.0984 3.05007 64.1247C3.28968 64.1711 3.53467 64.2036 3.78845 64.2036C3.91613 64.2036 4.04222 64.1975 4.16651 64.1851C4.91227 64.1124 5.59259 63.8265 6.14702 63.3939C6.23939 63.3218 6.32837 63.2456 6.41336 63.1658H11.5365H11.5397V68.2844C11.5397 69.7842 12.7878 71 14.3274 71H27.5001H40.6726C42.212 71 43.4603 69.7842 43.4603 68.2844V63.1658H43.4635H48.5866C48.757 63.3255 48.9422 63.4701 49.1405 63.5978C49.5866 63.8844 50.0979 64.0817 50.6489 64.1626C50.8325 64.1896 51.0202 64.2036 51.2116 64.2036C51.7837 64.2036 52.3264 64.0798 52.8124 63.859C53.1041 63.7261 53.3756 63.5583 53.6214 63.3609C53.862 63.1675 54.0745 62.9432 54.2596 62.698C54.334 62.5996 54.4039 62.4976 54.4681 62.3917C54.5521 62.2543 54.6273 62.1108 54.6928 61.9624C54.742 61.8516 54.7857 61.7373 54.8238 61.6207C54.9378 61.2715 55 60.8997 55 60.5135C55 59.8477 54.8147 59.226 54.498 58.6873C54.2696 58.297 53.9743 57.9495 53.6214 57.6656Z" fill="#24AAE1"/>
<path id="Vector_3" d="M54.348 8.18567C54.1449 7.88394 53.9017 7.61262 53.621 7.38225C53.4574 7.24749 53.282 7.12644 53.0969 7.02049C52.8192 6.86128 52.5193 6.73625 52.2033 6.65118C51.8871 6.56571 51.5545 6.52039 51.211 6.52039C50.956 6.52039 50.7068 6.54583 50.4662 6.59433C50.2254 6.64263 49.993 6.71399 49.7715 6.80562C49.3278 6.98929 48.9272 7.25444 48.5864 7.58162H43.4633L43.4601 7.58181V2.77739C43.4601 1.2433 42.2118 0 40.6724 0H27.5001H14.3274C12.7878 0 11.5397 1.2433 11.5397 2.77739V7.58181H11.5365L6.41336 7.58162C6.19251 7.36953 5.94412 7.18686 5.67738 7.03182C5.35318 6.84399 4.99946 6.70207 4.62338 6.6166C4.47395 6.58261 4.32213 6.55438 4.16631 6.53888C4.04202 6.52635 3.91593 6.51999 3.78824 6.51999C3.25975 6.51999 2.76218 6.63846 2.30591 6.83405C2.05632 6.94099 1.81552 7.06442 1.59666 7.21946C1.47536 7.30533 1.36044 7.39855 1.25051 7.49773C1.04642 7.68179 0.862071 7.88653 0.701867 8.11074C0.656379 8.17414 0.613883 8.23954 0.572386 8.30593C0.211876 8.88375 0 9.56353 0 10.294C0 10.9454 0.165791 11.5582 0.457271 12.0931C0.573783 12.3069 0.710645 12.5085 0.865064 12.6947C0.942273 12.788 1.02387 12.8774 1.10946 12.9629C1.25909 13.1121 1.42349 13.2463 1.59666 13.3689C2.21573 13.8078 2.97066 14.0686 3.78824 14.0686C4.45819 14.0686 5.08604 13.8933 5.63109 13.5878C5.81265 13.4858 5.98502 13.3695 6.14682 13.2405C6.23919 13.1668 6.32817 13.0887 6.41316 13.007H11.5363H11.5395V18.2423C11.5395 19.776 12.7876 21.0197 14.3272 21.0197H27.5001H40.6726C42.212 21.0197 43.4603 19.776 43.4603 18.2423V13.007H43.4635H48.5866C48.672 13.0887 48.7608 13.1668 48.8534 13.2405C49.0152 13.3695 49.1876 13.4858 49.3691 13.5878C49.9138 13.8933 50.5418 14.0686 51.2116 14.0686C51.7265 14.0686 52.2173 13.9661 52.665 13.7808C52.8142 13.719 52.9588 13.648 53.0973 13.5685C53.2826 13.4626 53.4578 13.3411 53.6214 13.2068C53.9019 12.976 54.1489 12.7057 54.353 12.4045C54.7614 11.8023 55 11.076 55 10.2944C55 9.64244 54.8294 9.03183 54.5371 8.49674C54.4789 8.39001 54.4156 8.28625 54.348 8.18567Z" fill="#F7951D"/>
</g>
</svg>
